# AST/ASF file generated using VICON BodyLanguage
# -----------------------------------------------
:version 1.10
:name VICON
:units
  mass 1.0
  length 0.45
  angle deg
:documentation
   .ast/.asf automatically generated from VICON data using
   VICON BodyBuilder and BodyLanguage model FoxedUp or BRILLIANT.MOD
:root
   order TX TY TZ RX RY RZ
   axis XYZ
   position 0 0 0  
   orientation 0 0 0 
:bonedata
  begin
     id 1 
     name lhipjoint
     direction 0.584852 -0.759097 0.285867 
     length 2.43633 
     axis 0 0 0  XYZ
  end
  begin
     id 2 
     name lfemur
     direction 0.34202 -0.939693 0  
     length 7.14704  
     axis 0 0 20  XYZ
    dof rx ry rz
    limits (-160.0 20.0)
           (-70.0 70.0)
           (-60.0 70.0)
  end
  begin
     id 3 
     name ltibia
     direction 0.342022 -0.939692 0   
     length 7.68483   
     axis 0 0 20   XYZ
    dof rx
    limits (-10.0 170.0)
  end
  begin
     id 4 
     name lfoot
     direction 0.0999605 -0.274639 0.956337   
     length 2.40452   
     axis -90 7.62852e-016 20   XYZ
    dof rx rz
    limits (-45.0 90.0)
           (-70.0 20.0)
  end
  begin
     id 5 
     name ltoes
     direction 1.53468e-011 -4.21881e-011 1   
     length 1.19837   
     axis -90 7.62852e-016 20   XYZ
    dof rx
    limits (-90.0 20.0)
  end
  begin
     id 6 
     name rhipjoint
     direction -0.569886 -0.769002 0.289597   
     length 2.40495  
     axis 0 0 0  XYZ 
  end
  begin
     id 7 
     name rfemur
     direction -0.34202 -0.939693 0   
     length 7.45086   
     axis 0 0 -20   XYZ
    dof rx ry rz
    limits (-160.0 20.0)
           (-70.0 70.0)
           (-70.0 60.0)
  end
  begin
     id 8 
     name rtibia
     direction -0.34202 -0.939693 0   
     length 7.76831   
     axis 0 0 -20   XYZ
    dof rx
    limits (-10.0 170.0)
 end
 begin
     id 9 
     name rfoot
     direction -0.0798572 -0.219406 0.97236   
     length 2.35911  
     axis -90 -7.62852e-016 -20   XYZ
    dof rx rz
    limits (-45.0 90.0)
           (-20.0 70.0)
  end
  begin
     id 10 
     name rtoes
     direction -1.53469e-011 -4.21728e-011 1   
     length 1.18261   
     axis -90 -7.62852e-016 -20   XYZ
    dof rx
    limits (-90.0 20.0)
  end
  begin
     id 11 
     name lowerback
     direction 0.0242088 0.999437 0.0232389   
     length 2.1561   
     axis 0 0 0   XYZ
    dof rx ry rz
    limits (-20.0 45.0)
           (-30.0 30.0)
           (-30.0 30.0)
  end
  begin
     id 12 
     name upperback
     direction -0.0356893 0.999013 -0.0264323   
     length 2.14431   
     axis 0 0 0   XYZ
    dof rx ry rz
    limits (-20.0 45.0)
           (-30.0 30.0)
           (-30.0 30.0)
  end
  begin
     id 13 
     name thorax
     direction -0.0472163 0.998194 -0.0371284   
     length 2.16169   
     axis 0 0 0   XYZ
    dof rx ry rz
    limits (-20.0 45.0)
           (-30.0 30.0)
           (-30.0 30.0)
  end
  begin
     id 14 
     name lowerneck
     direction 0.00863244 0.999921 0.00911972   
     length 1.58651   
     axis 0 0 0   XYZ
    dof rx ry rz
    limits (-20.0 45.0)
           (-30.0 30.0)
           (-30.0 30.0)
  end
  begin
     id 15 
     name upperneck
     direction 0.149523 0.979068 -0.138086   
     length 1.57486   
     axis 0 0 0   XYZ
    dof rx ry rz
    limits (-20.0 45.0)
           (-30.0 30.0)
           (-30.0 30.0)
  end
  begin
     id 16
     name head
     direction 0.0445219 0.997708 -0.0509576  
     length 1.6019  
     axis 0 0 0   XYZ
    dof rx ry rz
    limits (-20.0 45.0)
           (-30.0 30.0)
           (-30.0 30.0)
  end
  begin
     id 17 
     name lclavicle
     direction 0.911271 0.381667 -0.154644  
     length 3.80848  
     axis 0 0 0   XYZ
    dof ry rz
    limits (-20.0 10.0)
           (0.0 20.0)
  end
  begin
     id 18 
     name lhumerus
     direction 1 -4.49003e-011 2.1308e-027   
     length 5.19069   
     axis 180 -30 -90   XYZ
    dof rx ry rz
    limits (-60.0 90.0)
           (-90.0 90.0)
           (-90.0 90.0)
  end
  begin
     id 19
     name lradius
     direction 1 -4.48914e-011 4.01554e-027   
     length 3.30016   
     axis 180 -30 -90   XYZ
    dof rx
    limits (-10.0 170.0)
  end
  begin
     id 20
     name lwrist
     direction 1 -4.49003e-011 1.1934e-026   
     length 1.65008   
     axis -8.46377e-015 90 90   XYZ
    dof ry
    limits (-180.0 0.0)
 end
  begin
     id 21 
     name lhand
     direction 1 -4.49034e-011 2.38659e-026   
     length 0.707698   
     axis -1.52313e-014 90 90   XYZ
    dof rx rz
    limits (-90.0 90.0)
           (-45.0 45.0)
  end
  begin
     id 22 
     name lfingers
     direction 1 -4.48691e-011 4.77775e-026   
     length 0.570564   
     axis -3.04623e-014 90 90   XYZ
    dof rx
    limits (0.0 90.0)
  end
  begin
     id 23
     name lthumb
     direction 0.707107 -6.34832e-011 0.707107   
     length 0.819219   
     axis -90 45 -1.62303e-014   XYZ
    dof rx rz
    limits (-45.0 45.0)
           (-45.0 45.0)
  end
  begin
     id 24 
     name rclavicle
     direction -0.815579 0.573708 -0.0754329   
     length 3.54371  
     axis 0 0 0   XYZ 
    dof ry rz
    limits (-10.0 20.0)
           (-20.0 0.0)
  end
  begin
     id 25 
     name rhumerus
     direction -1 -4.48956e-011 3.05351e-028  
     length 5.23924   
     axis 180 30 90   XYZ
    dof rx ry rz
    limits (-90.0 60.0)
           (-90.0 90.0)
           (-90.0 90.0)
  end
  begin
     id 26 
     name rradius
     direction -1 -4.49013e-011 3.53849e-027   
     length 3.32953   
     axis 180 30 90   XYZ
    dof rx
    limits (-10.0 170.0)
  end
  begin
     id 27 
     name rwrist
     direction -1 -4.48901e-011 1.19374e-026   
     length 1.66477   
     axis -8.46377e-015 -90 -90   XYZ
    dof ry
    limits (-180.0 0.0)
  end
  begin
     id 28
     name rhand
     direction -1 -4.48877e-011 2.38764e-026   
     length 0.607414   
     axis -1.52313e-014 -90 -90   XYZ
    dof rx rz
    limits (-90.0 90.0)
           (-45.0 45.0)
  end
  begin
     id 29
     name rfingers
     direction -1 -4.48882e-011 4.77521e-026   
     length 0.489712   
     axis -3.04623e-014 -90 -90   XYZ
    dof rx
    limits (0.0 90.0)
  end
  begin
     id 30
     name rthumb
     direction -0.707107 -6.34974e-011 0.707107   
     length 0.703132   
     axis -90 -45 1.62303e-014   XYZ
    dof rx rz
    limits (-45.0 45.0)
           (-45.0 45.0)
  end
:hierarchy
  begin
    root lhipjoint rhipjoint lowerback
    lhipjoint lfemur
    lfemur ltibia
    ltibia lfoot
    lfoot ltoes
    rhipjoint rfemur
    rfemur rtibia
    rtibia rfoot
    rfoot rtoes
    lowerback upperback
    upperback thorax
    thorax lowerneck lclavicle rclavicle
    lowerneck upperneck
    upperneck head
    lclavicle lhumerus
    lhumerus lradius
    lradius lwrist
    lwrist lhand lthumb
    lhand lfingers
    rclavicle rhumerus
    rhumerus rradius
    rradius rwrist
    rwrist rhand rthumb
    rhand rfingers
  end

#!OML:ASF E:\VariousWalksJay\Project 1\Capture day 1\Session 1\Actor2.ASF
:FULLY-SPECIFIED
:DEGREES
521
root 2.89068 12.8311 10.9648 35.9399 11.243 -0.764138
lowerback 34.7306 -5.09596 13.8034
upperback 10.0748 -1.4128 2.02419
thorax -6.22449 -0.560218 -4.46518
lowerneck 6.59837 -3.92276 -5.85369
upperneck -3.06307 -5.1366 13.5761
head -1.47404 -2.87268 5.20248
rclavicle 3.57812e-014 1.19271e-015
rhumerus 79.0003 -41.967 -14.2727
rradius 27.7552
rwrist 10.9913
rhand 0.0333178 -11.3491
rfingers 7.12502
rthumb 25.6223 -39.6453
lclavicle 3.57812e-014 1.19271e-015
lhumerus 94.3195 35.8028 21.7749
lradius 33.1461
lwrist 17.9005
lhand -15.1007 8.50205
lfingers 7.12502
lthumb 11.0676 38.1902
rfemur -106.386 1.25831 8.18808
rtibia 81.6126
rfoot -7.94295 4.23543
rtoes -8.31155
lfemur 2.42825 21.5185 -1.67687
ltibia 20.3332
lfoot -31.7181 30.548
ltoes -20.0536
522
root 2.90055 12.8433 10.9162 35.6813 11.4505 -0.461243
lowerback 34.6957 -5.21059 13.9537
upperback 10.271 -1.52153 1.98964
thorax -6.0088 -0.585468 -4.53956
lowerneck 6.80549 -3.95388 -5.85221
upperneck -3.12039 -5.17454 13.6184
head -1.52034 -2.90065 5.22297
rclavicle -2.38542e-014 -1.27222e-014
rhumerus 79.2364 -41.7739 -14.8244
rradius 27.677
rwrist 11.6459
rhand -4.2873 -11.5453
rfingers 7.12502
rthumb 21.4781 -40.3745
lclavicle -2.38542e-014 -1.27222e-014
lhumerus 94.5934 35.2687 22.26
lradius 33.1258
lwrist 16.9913
lhand -18.1672 7.76137
lfingers 7.12502
lthumb 8.109 37.5858
rfemur -106.008 0.900304 7.96235
rtibia 81.4046
rfoot -7.66363 4.17423
rtoes -8.04087
lfemur 1.39952 22.8033 -1.42908
ltibia 22.5772
lfoot -31.2445 29.2053
ltoes -20.8335
523
root 2.91133 12.8558 10.865 35.4056 11.6694 -0.138461
lowerback 34.6071 -5.32229 14.125
upperback 10.4781 -1.63074 1.94773
thorax -5.76278 -0.607788 -4.63435
lowerneck 7.09459 -3.99961 -5.75385
upperneck -3.2409 -5.22218 13.5786
head -1.60249 -2.93664 5.20609
rclavicle 1.74931e-014 -7.95139e-016
rhumerus 79.4641 -41.4991 -15.4594
rradius 27.6206
rwrist 12.248
rhand -9.0312 -11.8694
rfingers 7.12502
rthumb 16.9164 -41.1527
lclavicle 1.74931e-014 -7.95139e-016
lhumerus 94.9407 34.6048 22.8319
lradius 33.0575
lwrist 15.8829
lhand -21.2542 6.84682
lfingers 7.12502
lthumb 5.12895 36.7647
rfemur -105.601 0.528526 7.70704
rtibia 81.1876
rfoot -7.37771 4.09771
rtoes -7.73563
lfemur 0.355751 24.0393 -1.20203
ltibia 24.8708
lfoot -30.8055 27.8855
ltoes -21.4695
524
root 2.92331 12.8685 10.8111 35.1122 11.8959 0.200312
lowerback 34.462 -5.42569 14.3163
upperback 10.6913 -1.73482 1.89882
thorax -5.48987 -0.624824 -4.75099
lowerneck 7.45774 -4.06516 -5.57381
upperneck -3.39766 -5.28805 13.4836
head -1.70949 -2.98429 5.16228
rclavicle 1.35174e-014 6.95746e-015
rhumerus 79.6664 -41.1295 -16.1711
rradius 27.6063
rwrist 12.7729
rhand -14.0841 -12.3018
rfingers 7.12502
rthumb 12.048 -41.935
lclavicle 1.35174e-014 6.95746e-015
lhumerus 95.3528 33.7996 23.479
lradius 32.9481
lwrist 14.5778
lhand -24.29 5.75821
lfingers 7.12502
lthumb 2.19724 35.7266
rfemur -105.165 0.147922 7.42034
rtibia 80.9609
rfoot -7.08913 4.01036
rtoes -7.41524
lfemur -0.692976 25.2222 -0.998662
ltibia 27.2051
lfoot -30.3915 26.5932
ltoes -21.9469
525
root 2.93674 12.8812 10.7546 34.7987 12.1268 0.551322
lowerback 34.2616 -5.51611 14.5255
upperback 10.906 -1.82872 1.84466
thorax -5.19491 -0.634615 -4.88842
lowerneck 7.89031 -4.1555 -5.30769
upperneck -3.57759 -5.3782 13.3344
head -1.83646 -3.04597 5.09124
rclavicle 3.26007e-014 1.21259e-014
rhumerus 79.8195 -40.6527 -16.9426
rradius 27.6596
rwrist 13.2073
rhand -19.2932 -12.8023
rfingers 7.12502
rthumb 7.02216 -42.6658
lclavicle 3.26007e-014 1.21259e-014
lhumerus 95.8108 32.845 24.1819
lradius 32.8127
lwrist 13.1002
lhand -27.2149 4.50352
lfingers 7.12502
lthumb -0.627633 34.4823
rfemur -104.695 -0.236881 7.1
rtibia 80.724
rfoot -6.80216 3.91834
rtoes -7.10474
lfemur -1.73188 26.3452 -0.820234
ltibia 29.5681
lfoot -29.9931 25.3314
ltoes -22.2645
526
root 2.9519 12.894 10.6956 34.461 12.3595 0.91059
lowerback 34.0103 -5.5903 14.75
upperback 11.1175 -1.90858 1.78745
thorax -4.8836 -0.635814 -5.04417
lowerneck 8.37579 -4.2745 -4.96187
upperneck -3.75574 -5.4984 13.1386
head -1.97272 -3.12326 4.99588
rclavicle -1.59028e-015 -4.75095e-014
rhumerus 79.8938 -40.058 -17.7491
rradius 27.8105
rwrist 13.5481
rhand -24.476 -13.3175
rfingers 7.12502
rthumb 2.01765 -43.2877
lclavicle -1.59028e-015 -4.75095e-014
lhumerus 96.2876 31.7365 24.9142
lradius 32.6744
lwrist 11.4962
lhand -29.9809 3.09344
lfingers 7.12502
lthumb -3.29897 33.0477
rfemur -104.187 -0.620919 6.74416
rtibia 80.4763
rfoot -6.52186 3.82814
rtoes -6.84304
lfemur -2.74145 27.3981 -0.665595
ltibia 31.9447
lfoot -29.6044 24.1021
ltoes -22.4328
